<?xml version="1.0" standalone="no"?><!DOCTYPE svg PUBLIC "-//W3C//DTD SVG 1.1//EN" "http://www.w3.org/Graphics/SVG/1.1/DTD/svg11.dtd"><svg t="1784376401700" class="icon" viewBox="0 0 1024 1024" version="1.1" xmlns="http://www.w3.org/2000/svg" p-id="28631" xmlns:xlink="http://www.w3.org/1999/xlink" width="200" height="200"><path d="M841.728 857.361067c9.1136 0 16.4864 7.168 16.4864 16.042666v32.119467c0 8.874667-7.3728 16.0768-16.452267 16.0768H216.3712a16.247467 16.247467 0 0 1-16.452267-16.042667v-32.1536c0-8.874667 7.3728-16.042667 16.452267-16.042666h625.390933zM529.066667 102.4c54.545067 0 98.747733 43.144533 98.747733 96.392533 0 41.949867-27.477333 77.653333-65.8432 90.862934v69.7344h246.852267c27.306667 0 49.390933 21.6064 49.390933 48.196266v337.339734c0 26.624-22.1184 48.162133-49.390933 48.162133H249.309867c-27.306667 0-49.390933-21.572267-49.390934-48.162133V407.552c0-26.624 22.1184-48.196267 49.390934-48.196267h246.852266V289.655467c-37.888-13.038933-65.1264-48.0256-65.809066-89.2928v-1.570134C430.318933 145.544533 474.487467 102.4 529.066667 102.4zM117.623467 463.803733c9.1136 0 16.4864 7.168 16.4864 16.042667v192.785067c0 8.874667-7.3728 16.042667-16.4864 16.042666h-32.904534a16.247467 16.247467 0 0 1-16.452266-16.042666v-192.750934c0-8.874667 7.3728-16.042667 16.452266-16.042666h32.904534z m855.790933 0c9.079467 0 16.452267 7.168 16.452267 16.042667v192.785067c0 8.874667-7.3728 16.042667-16.452267 16.042666h-32.904533a16.247467 16.247467 0 0 1-16.4864-16.042666v-192.750934c0-8.874667 7.3728-16.042667 16.4864-16.042666h32.904533zM660.753067 512c-36.386133 0-65.877333 28.7744-65.877334 64.238933 0 35.498667 29.4912 64.273067 65.877334 64.273067 36.317867 0 65.809067-28.7744 65.809066-64.273067S697.070933 512 660.718933 512z m-263.338667 0c-36.352 0-65.8432 28.7744-65.8432 64.238933 0 35.498667 29.4912 64.273067 65.8432 64.273067s65.809067-28.7744 65.809067-64.273067S433.7664 512 397.4144 512zM529.066667 166.638933a32.529067 32.529067 0 0 0-32.904534 32.1536c0 17.749333 14.711467 32.085333 32.904534 32.085334a32.529067 32.529067 0 0 0 32.904533-32.085334 32.529067 32.529067 0 0 0-32.904533-32.1536z" fill="#FF7D00" p-id="28632"></path><path d="M331.5712 576.238933c0 35.498667 29.4912 64.273067 65.8432 64.273067s65.809067-28.7744 65.809067-64.273067S433.7664 512 397.4144 512s-65.8432 28.7744-65.8432 64.238933zM594.909867 576.238933c0 35.498667 29.457067 64.273067 65.809066 64.273067s65.8432-28.7744 65.8432-64.273067S697.070933 512 660.718933 512s-65.809067 28.7744-65.809066 64.238933z" fill="#FFBE7F" opacity=".5" p-id="28633"></path></svg>