<?xml version="1.0" standalone="no"?><!DOCTYPE svg PUBLIC "-//W3C//DTD SVG 1.1//EN" "http://www.w3.org/Graphics/SVG/1.1/DTD/svg11.dtd"><svg t="1784363785926" class="icon" viewBox="0 0 1024 1024" version="1.1" xmlns="http://www.w3.org/2000/svg" p-id="7253" xmlns:xlink="http://www.w3.org/1999/xlink" width="200" height="200"><path d="M204.8 102.4h605.8496a102.4 102.4 0 0 1 102.4 102.4v648.5504a102.4 102.4 0 0 1-102.4 102.4H204.8a102.4 102.4 0 0 1-102.4-102.4V204.8a102.4 102.4 0 0 1 102.4-102.4z" fill="#1595EA" p-id="7254"></path><path d="M256 153.6m51.2 0l409.6 0q51.2 0 51.2 51.2l0 256q0 51.2-51.2 51.2l-409.6 0q-51.2 0-51.2-51.2l0-256q0-51.2 51.2-51.2Z" fill="#D9DEE4" p-id="7255"></path><path d="M725.3504 665.6c23.552 0 42.6496 19.0976 42.6496 42.6496V921.6H256v-204.8a51.2 51.2 0 0 1 51.2-51.2h418.1504z" fill="#FFFFFF" p-id="7256"></path><path d="M358.4 716.8h102.4v204.8H358.4z" fill="#B8BFC5" p-id="7257"></path></svg>