<?xml version="1.0" standalone="no"?><!DOCTYPE svg PUBLIC "-//W3C//DTD SVG 1.1//EN" "http://www.w3.org/Graphics/SVG/1.1/DTD/svg11.dtd"><svg t="1784373370207" class="icon" viewBox="0 0 1024 1024" version="1.1" xmlns="http://www.w3.org/2000/svg" p-id="23061" xmlns:xlink="http://www.w3.org/1999/xlink" width="200" height="200"><path d="M800.003009 128H223.978931A95.975922 95.975922 0 0 0 127.978931 224v32h768.024078V224a95.975922 95.975922 0 0 0-96-96m-167.705041-64l14.133935 101.008277H377.550037l14.133935-101.008277h240.613996M640.003009 0H383.978931c-26.413845 0-50.973664 21.38149-54.657637 47.554552l-18.708804 133.923251c-3.659895 26.148984 14.976674 47.506396 41.366441 47.506396h320c26.413845 0 45.026336-21.38149 41.342363-47.554553l-18.708804-133.899172C690.952595 21.38149 666.392776 0 640.003009 0m175.987961 320H207.99097c-35.17833 0-61.399549 28.677201-58.221219 63.759217L202.212189 960.240783c3.154251 35.057938 34.600451 63.759217 69.778781 63.759217h480c35.17833 0 66.62453-28.677201 69.778781-63.759217l52.442438-576.481566c3.202408-35.082017-23.018811-63.759217-58.221219-63.759217M383.978931 895.975922H287.978931L255.978931 448h128v447.975922z m192 0H447.978931V448h128v447.975922z m160.024078 0h-96V448h128l-32 447.975922z" fill="#F07418" p-id="23062"></path></svg>