<?xml version="1.0" standalone="no"?><!DOCTYPE svg PUBLIC "-//W3C//DTD SVG 1.1//EN" "http://www.w3.org/Graphics/SVG/1.1/DTD/svg11.dtd"><svg t="1784379897672" class="icon" viewBox="0 0 1024 1024" version="1.1" xmlns="http://www.w3.org/2000/svg" p-id="7199" xmlns:xlink="http://www.w3.org/1999/xlink" width="256" height="256"><path d="M813.714286 128C868.571429 128 896 156.452571 896 213.321143v289.645714a77.238857 77.238857 0 0 0-97.28 11.264l-4.754286 5.485714a78.628571 78.628571 0 0 0-17.005714 45.165715v31.926857l-2.121143 0.548571c-114.688 30.390857-198.802286 138.020571-198.838857 265.252572 0.768 12.982857 2.084571 24.137143 3.949714 33.426285L210.285714 896C155.428571 896 128 867.547429 128 810.678857V213.321143C128 156.452571 155.428571 128 210.285714 128h603.428572z" fill="#4DB6AC" p-id="7200"></path><path d="M265.142857 128h493.714286v227.547429c0 15.104-5.778286 29.549714-16.091429 40.228571a53.869714 53.869714 0 0 1-38.765714 16.676571H320c-14.555429 0-28.525714-5.997714-38.765714-16.676571a57.965714 57.965714 0 0 1-16.091429-40.228571V128z" fill="#E0F2F1" p-id="7201"></path><path d="M640 213.321143m32 0l0 0q32 0 32 32l0 64q0 32-32 32l0 0q-32 0-32-32l0-64q0-32 32-32Z" fill="#4DB6AC" p-id="7202"></path><path d="M844.653714 558.811429c5.302857-5.485714 13.897143-5.485714 19.2 0l133.705143 153.051428a14.153143 14.153143 0 0 1 3.84 10.642286 14.189714 14.189714 0 0 1-3.84 10.642286L864.548571 885.394286a13.056 13.056 0 0 1-10.203428 5.229714 14.116571 14.116571 0 0 1-13.385143-15.981714l-0.219429-82.212572C752.64 750.445714 640 862.646857 640 862.610286c0-115.931429 89.965714-209.846857 200.996571-209.846857v-82.432a14.153143 14.153143 0 0 1 3.657143-11.556572z" fill="#4DB6AC" p-id="7203"></path></svg>