<?xml version="1.0" standalone="no"?><!DOCTYPE svg PUBLIC "-//W3C//DTD SVG 1.1//EN" "http://www.w3.org/Graphics/SVG/1.1/DTD/svg11.dtd"><svg t="1784381995015" class="icon" viewBox="0 0 1024 1024" version="1.1" xmlns="http://www.w3.org/2000/svg" p-id="5723" width="256" height="256" xmlns:xlink="http://www.w3.org/1999/xlink"><path d="M0 0h1024v1024H0z" fill="#FFFFFF" fill-opacity=".01" p-id="5724"></path><path d="M547.301053 107.789474C753.987368 126.194526 916.210526 299.627789 916.210526 511.245474c0 223.797895-181.274947 405.072842-405.072842 405.072842-211.617684 0-385.158737-162.357895-403.34821-369.125053a37.699368 37.699368 0 0 1 66.479158-22.608842c0.215579 0.323368 0.538947 0.107789 0.538947-0.754526a244.547368 244.547368 0 0 0 178.714947 77.338947 247.538526 247.538526 0 0 0 247.565474-247.538526 244.547368 244.547368 0 0 0-78.120421-179.469474c0.107789-0.107789 0.538947-0.107789 0.323368-0.323368A38.076632 38.076632 0 0 1 547.301053 107.789474zM269.473684 431.157895c0.377263 0 0.673684 0.080842 0.943158 0.269473 0.269474 0.161684 0.512 0.350316 0.673684 0.592843a5.066105 5.066105 0 0 1 0.754527 1.266526l6.009263 15.333052 16.599579 1.64379a3.637895 3.637895 0 0 1 1.509052 0.700632c0.269474 0.269474 0.431158 0.673684 0.431158 1.239578 0 0.538947-0.161684 1.024-0.458105 1.401264a57.721263 57.721263 0 0 1-1.158737 1.482105l-11.102316 10.64421 1.616842 8.165053 0.565895 3.098947a163.301053 163.301053 0 0 0 1.13179 6.063158c0.107789 0.754526-0.053895 1.266526-0.485053 1.509053a2.856421 2.856421 0 0 1-1.455158 0.377263l-0.323368-0.053895-0.431158-0.134736a31.393684 31.393684 0 0 1-0.808421-0.323369l-14.012632-8.704a472.225684 472.225684 0 0 1-11.964631 7.383579 59.580632 59.580632 0 0 1-2.910316 1.724632 1.724632 1.724632 0 0 1-1.077895 0.188631 2.236632 2.236632 0 0 1-1.697684-1.239579 1.616842 1.616842 0 0 1-0.10779-1.024 224.525474 224.525474 0 0 1 0.754527-3.233684 180.250947 180.250947 0 0 1 1.347368-5.739789l1.805474-8.003369a1006.268632 1006.268632 0 0 0-11.641263-10.64421 6.736842 6.736842 0 0 1-1.104842-1.401264 2.425263 2.425263 0 0 1-0.350316-1.589894 2.048 2.048 0 0 1 1.670737-1.832421l16.572631-1.616842 6.197895-15.306106a4.608 4.608 0 0 1 0.91621-1.589894 2.048 2.048 0 0 1 1.616843-0.646737z m215.632842-134.736842c0.700632 0 1.347368 0.161684 1.886316 0.538947 0.538947 0.323368 0.970105 0.727579 1.347369 1.185684a10.132211 10.132211 0 0 1 1.482105 2.506105l12.045473 30.666106 33.172211 3.314526a7.275789 7.275789 0 0 1 3.018105 1.374316c0.565895 0.538947 0.862316 1.374316 0.862316 2.533052 0 1.077895-0.296421 1.994105-0.91621 2.802527-0.592842 0.808421-1.374316 1.778526-2.317474 2.910316l-22.231579 21.288421a1542.656 1542.656 0 0 1 6.656 34.681263c0.215579 1.536-0.107789 2.533053-0.970105 3.045052a5.685895 5.685895 0 0 1-2.883369 0.727579 4.715789 4.715789 0 0 1-1.562947-0.40421 62.787368 62.787368 0 0 1-1.562948-0.61979l-28.025263-17.408a944.451368 944.451368 0 0 1-19.186526 11.802948l-4.769684 2.96421a119.188211 119.188211 0 0 1-5.820632 3.449263 3.476211 3.476211 0 0 1-2.182737 0.404211 4.473263 4.473263 0 0 1-3.395368-2.533053 3.233684 3.233684 0 0 1-0.215579-1.994105l0.538947-2.236632 0.970106-4.230736a360.501895 360.501895 0 0 1 2.694736-11.506527l3.637895-16.033684a2012.698947 2012.698947 0 0 0-19.402105-17.677474 318.302316 318.302316 0 0 0-3.907368-3.610947 13.500632 13.500632 0 0 1-2.209685-2.802526 4.796632 4.796632 0 0 1-0.673684-3.125895 4.096 4.096 0 0 1 3.314526-3.664842l33.199158-3.233684 12.341895-30.639158a9.242947 9.242947 0 0 1 1.832421-3.152842 4.122947 4.122947 0 0 1 3.233684-1.320421z m-215.552-134.736842c1.077895 0 2.021053 0.269474 2.829474 0.781473 0.808421 0.512 1.482105 1.104842 2.021053 1.805474a15.225263 15.225263 0 0 1 2.236631 3.772631l18.054737 45.999158 49.798737 4.985264c2.155789 0.565895 3.637895 1.239579 4.50021 2.048s1.293474 2.074947 1.293474 3.772631a6.736842 6.736842 0 0 1-1.347368 4.20379 173.163789 173.163789 0 0 1-3.503158 4.392421l-33.333895 31.932631a2313.970526 2313.970526 0 0 1 9.350737 48.666948l0.646737 3.341473c0.296421 2.290526-0.161684 3.799579-1.455158 4.554106a8.542316 8.542316 0 0 1-4.365474 1.104842 7.087158 7.087158 0 0 1-2.317474-0.592842 94.181053 94.181053 0 0 1-2.344421-0.943158l-42.037894-26.085053a1416.623158 1416.623158 0 0 1-28.77979 17.677474c-2.640842 1.616842-5.039158 3.072-7.168 4.446315-2.155789 1.374316-4.015158 2.533053-5.578105 3.449264a35.247158 35.247158 0 0 1-3.125895 1.697684 5.200842 5.200842 0 0 1-3.314526 0.619789 6.682947 6.682947 0 0 1-5.066105-3.772631 4.823579 4.823579 0 0 1-0.323369-3.018106l0.808421-3.341473c0.431158-1.778526 0.916211-3.880421 1.455158-6.359579a540.725895 540.725895 0 0 1 4.015158-17.246316l5.470316-24.037053a3018.994526 3018.994526 0 0 0-29.076211-26.51621 477.507368 477.507368 0 0 0-5.874526-5.389474 20.264421 20.264421 0 0 1-3.314526-4.230737 7.194947 7.194947 0 0 1-1.050948-4.715789 6.144 6.144 0 0 1 5.012211-5.497263l49.771789-4.796632 18.53979-46.026105a13.850947 13.850947 0 0 1 2.748631-4.71579 6.170947 6.170947 0 0 1 4.850527-1.967157z" fill="#E8D646" p-id="5725"></path></svg>