<?xml version="1.0" standalone="no"?><!DOCTYPE svg PUBLIC "-//W3C//DTD SVG 1.1//EN" "http://www.w3.org/Graphics/SVG/1.1/DTD/svg11.dtd"><svg t="1784381948256" class="icon" viewBox="0 0 1024 1024" version="1.1" xmlns="http://www.w3.org/2000/svg" p-id="1756" xmlns:xlink="http://www.w3.org/1999/xlink" width="256" height="256"><path d="M215.578947 264.084211c10.778947 10.778947 32.336842 10.778947 43.11579 0 10.778947-10.778947 10.778947-32.336842 0-43.11579L194.021053 150.905263c-10.778947-16.168421-32.336842-16.168421-43.11579 0-16.168421 10.778947-16.168421 32.336842-5.389474 43.11579L215.578947 264.084211z m592.842106-16.168422l64.673684-64.673684c10.778947-10.778947 10.778947-32.336842 0-43.115789-10.778947-10.778947-32.336842-10.778947-43.11579 0l-64.673684 64.673684c-10.778947 10.778947-10.778947 32.336842 0 43.115789 10.778947 10.778947 32.336842 10.778947 43.11579 0zM506.610526 156.294737c16.168421 0 32.336842-16.168421 32.336842-32.336842V32.336842c0-16.168421-16.168421-32.336842-32.336842-32.336842s-32.336842 16.168421-32.336842 32.336842v97.010526c0 16.168421 16.168421 26.947368 32.336842 26.947369zM123.957895 474.273684H32.336842c-16.168421 0-32.336842 16.168421-32.336842 32.336842s16.168421 32.336842 32.336842 32.336842h97.010526c16.168421 0 32.336842-16.168421 32.336843-32.336842-5.389474-16.168421-16.168421-26.947368-37.726316-32.336842z m382.652631-253.305263c-161.684211 0-285.642105 129.347368-285.642105 285.642105 0 161.684211 129.347368 285.642105 285.642105 285.642106 161.684211 0 285.642105-129.347368 285.642106-285.642106s-123.957895-285.642105-285.642106-285.642105z m474.273685 258.694737h-97.010527c-16.168421 0-32.336842 16.168421-32.336842 32.336842s16.168421 32.336842 32.336842 32.336842h97.010527c16.168421 0 32.336842-16.168421 32.336842-32.336842s-16.168421-32.336842-32.336842-32.336842zM797.642105 754.526316c-10.778947-10.778947-32.336842-10.778947-43.115789 0-10.778947 10.778947-10.778947 32.336842 0 43.115789l64.673684 64.673684c10.778947 10.778947 32.336842 10.778947 43.115789 0 10.778947-10.778947 10.778947-32.336842 0-43.115789L797.642105 754.526316z m-565.894737-16.168421l-64.673684 64.673684c-10.778947 10.778947-10.778947 32.336842 0 43.115789 10.778947 10.778947 32.336842 10.778947 43.11579 0l64.673684-64.673684c10.778947-10.778947 10.778947-32.336842 0-43.115789-10.778947-10.778947-26.947368-10.778947-43.11579 0z m274.863158 118.568421c-16.168421 0-32.336842 16.168421-32.336842 32.336842v97.010526c0 16.168421 16.168421 32.336842 32.336842 32.336842s32.336842-16.168421 32.336842-32.336842v-97.010526c0-21.557895-16.168421-32.336842-32.336842-32.336842z" fill="#FF3D00" p-id="1757"></path></svg>