<?xml version="1.0" standalone="no"?><!DOCTYPE svg PUBLIC "-//W3C//DTD SVG 1.1//EN" "http://www.w3.org/Graphics/SVG/1.1/DTD/svg11.dtd"><svg t="1784373079303" class="icon" viewBox="0 0 1024 1024" version="1.1" xmlns="http://www.w3.org/2000/svg" p-id="17982" data-spm-anchor-id="a313x.search_index.0.i7.3c3a3a812QLkRt" xmlns:xlink="http://www.w3.org/1999/xlink" width="200" height="200"><path d="M512 512V238.907077a25.6 25.6 0 0 0-25.6-25.6h-34.107077a25.6 25.6 0 0 0-25.6 25.6v332.8a25.6 25.6 0 0 0 25.6 25.6h332.8a25.6 25.6 0 0 0 25.6-25.6v-34.107077a25.6 25.6 0 0 0-25.6-25.6H512z m0 512A512 512 0 1 1 1024 512 512 512 0 0 1 512 1024z" fill="#8a8a8a" p-id="17983" data-spm-anchor-id="a313x.search_index.0.i6.3c3a3a812QLkRt" class="selected"></path></svg>