<?xml version="1.0" standalone="no"?><!DOCTYPE svg PUBLIC "-//W3C//DTD SVG 1.1//EN" "http://www.w3.org/Graphics/SVG/1.1/DTD/svg11.dtd"><svg t="1784372535862" class="icon" viewBox="0 0 1024 1024" version="1.1" xmlns="http://www.w3.org/2000/svg" p-id="1559" xmlns:xlink="http://www.w3.org/1999/xlink" width="200" height="200"><path d="M134.4 256h355.328c11.1616 0 21.504 5.8368 27.3408 15.36l33.28 54.6304c5.7856 9.5232 16.1792 15.36 27.3408 15.36h243.6608c17.664 0 32 14.336 32 32l-0.0512 576c0 17.664-14.336 32-32 32H134.4A32 32 0 0 1 102.4 949.3504V288C102.4 270.336 116.736 256 134.4 256z" fill="#C57D00" p-id="1560"></path><path d="M288.5632 512h690.1248c22.1184 0 37.5296 21.8624 30.1568 42.7008l-140.8 396.8a32 32 0 0 1-30.208 21.2992H147.712a32 32 0 0 1-30.1568-42.7008l140.8-396.8a32 32 0 0 1 30.208-21.2992z" fill="#F0B938" p-id="1561"></path><path d="M631.808 416.256l86.4256-16.5376c-47.0016-155.8016-194.816-251.904-356.6592-231.8848a8.448 8.448 0 0 1-8.8064-6.2464 9.5232 9.5232 0 0 1 0.3584-5.9392 9.5232 9.5232 0 0 1 3.7376-4.6592c94.3104-50.688 204.0832-53.8112 295.7824-8.4992 91.7504 45.2608 154.5728 133.632 169.216 238.1312l74.6496-15.36a16.896 16.896 0 0 1 19.712 13.1584 18.7392 18.7392 0 0 1-3.1232 15.36l-116.0192 159.744a18.4832 18.4832 0 0 1-18.8416 7.5264 17.92 17.92 0 0 1-6.5024-2.816l-150.1184-109.8752a18.0224 18.0224 0 0 1-4.6592-18.7904 19.5584 19.5584 0 0 1 14.848-13.312z" fill="#1595EA" p-id="1562"></path></svg>