<?xml version="1.0" standalone="no"?><!DOCTYPE svg PUBLIC "-//W3C//DTD SVG 1.1//EN" "http://www.w3.org/Graphics/SVG/1.1/DTD/svg11.dtd"><svg t="1784507678750" class="icon" viewBox="0 0 1024 1024" version="1.1" xmlns="http://www.w3.org/2000/svg" p-id="6151" xmlns:xlink="http://www.w3.org/1999/xlink" width="256" height="256"><path d="M180.11136 39.04A81.50528 81.50528 0 0 0 97.28 118.912l0 798.67392c0 47.91808 33.13152 79.872 82.83136 79.872a81.50016 81.50016 0 0 0 82.82112-79.872L262.93248 118.912c0-47.92320001-33.13152-79.872-82.82112-79.872zM900.72064 462.336L486.57408 55.01440001c-33.13152-31.9488-57.984-23.9616-57.984 23.96159999l-1e-8 886.528c0 47.91808 24.85248 55.9104 57.98400001 23.9616l422.4256-407.3216c24.85248-39.936 24.85248-87.8592-8.27904-119.808z" fill="#d5e8ef" p-id="6152"></path></svg>